<?xml version="1.0" standalone="no"?>
<!DOCTYPE svg PUBLIC "-//W3C//DTD SVG 20010904//EN"
 "http://www.w3.org/TR/2001/REC-SVG-20010904/DTD/svg10.dtd">
<svg version="1.0" xmlns="http://www.w3.org/2000/svg"
 width="600.000000pt" height="600.000000pt" viewBox="0 0 600.000000 600.000000"
 preserveAspectRatio="xMidYMid meet">
<metadata>
Created by potrace 1.11, written by Peter Selinger 2001-2013
</metadata>
<g transform="translate(0.000000,600.000000) scale(0.100000,-0.100000)"
fill="#000000" stroke="none">
<path d="M1260 5991 c0 -17 100 -184 133 -222 22 -25 47 -97 47 -136 0 -27 7
-42 28 -59 15 -13 31 -24 35 -24 14 0 35 -26 50 -63 20 -46 94 -127 117 -127
10 0 23 -6 30 -14 6 -8 17 -13 23 -10 7 2 27 -9 45 -26 18 -16 35 -30 38 -30
12 0 2 59 -11 64 -8 3 -12 12 -9 20 6 16 -27 86 -50 105 -9 8 -16 19 -16 25 0
7 -16 31 -36 54 -19 23 -37 53 -38 67 -2 14 -15 39 -31 55 -19 19 -28 39 -27
59 0 17 -5 32 -14 35 -8 3 -14 13 -14 22 0 13 8 9 30 -16 17 -18 30 -41 30
-50 0 -10 10 -28 23 -42 102 -114 176 -182 185 -173 4 3 16 -17 29 -45 19 -43
26 -50 43 -45 14 4 20 2 20 -8 0 -9 -4 -17 -10 -19 -6 -2 -6 -8 0 -18 8 -13
11 -13 19 -1 7 11 10 9 16 -8 3 -11 13 -21 21 -21 10 0 13 -7 8 -25 -5 -19 -2
-25 10 -25 9 0 27 -18 41 -40 14 -22 29 -40 34 -40 5 0 34 -25 65 -55 38 -38
56 -63 56 -80 0 -26 -14 -34 -24 -12 -4 6 -3 1 0 -13 11 -43 5 -94 -13 -107
-15 -11 -14 -13 3 -19 10 -4 48 -35 84 -70 98 -95 103 -100 128 -113 22 -12
31 -41 12 -41 -5 0 -10 -5 -10 -11 0 -5 5 -7 10 -4 17 10 82 -15 76 -30 -2 -7
2 -22 11 -34 12 -17 18 -20 29 -10 19 16 18 33 -2 25 -12 -5 -14 -1 -9 15 4
11 0 30 -9 44 -14 22 -14 24 2 23 9 0 26 3 36 7 14 6 17 5 11 -4 -9 -16 14
-61 32 -61 7 0 13 -4 13 -10 0 -5 6 -10 13 -10 6 0 25 -19 41 -43 15 -23 44
-55 64 -70 30 -23 38 -26 47 -14 12 16 60 31 90 28 18 -2 21 5 23 49 1 36 -2
50 -11 50 -8 0 -19 11 -25 25 -15 33 -15 35 3 35 9 0 15 10 15 26 0 17 4 23
12 18 8 -5 9 -2 5 10 -4 10 -7 24 -7 32 0 8 -10 14 -25 14 -15 0 -25 5 -24 13
4 24 -13 67 -27 67 -8 0 -14 5 -14 11 0 13 -38 49 -52 49 -4 0 -8 5 -8 11 0 6
-14 31 -31 55 -26 38 -33 43 -46 32 -12 -10 -18 -9 -29 7 -8 10 -14 27 -14 37
0 10 -7 18 -15 18 -22 0 -57 39 -51 57 3 8 0 21 -7 28 -32 37 -37 46 -37 70 0
20 -5 25 -23 25 -25 0 -50 37 -52 77 -1 22 -41 62 -62 63 -7 0 -13 6 -14 13
-1 6 -2 19 -3 27 -3 31 -41 79 -79 101 -22 12 -64 44 -94 71 -29 26 -58 48
-64 48 -8 0 -8 4 -1 13 8 10 5 18 -14 32 -14 10 -23 24 -20 31 3 7 -11 26 -30
43 -18 17 -34 37 -34 44 0 8 -5 29 -11 46 -10 28 -16 32 -37 28 -20 -4 -27 1
-35 24 -7 17 -19 29 -29 29 -23 0 -23 17 0 23 9 2 -65 5 -166 6 l-183 1 26
-45 c15 -24 25 -50 23 -56 -2 -6 -10 2 -18 18 -8 15 -21 34 -27 41 -7 7 -13
20 -13 28 0 11 -22 14 -115 14 -63 0 -115 -4 -115 -9z m98 -105 c3 -15 1 -16
-17 -6 -12 6 -19 16 -15 21 9 15 28 5 32 -15z m441 -18 c10 -29 2 -63 -12 -49
-13 13 -17 71 -5 71 5 0 12 -10 17 -22z m48 -4 c3 -9 1 -19 -4 -23 -6 -3 -13
-13 -16 -21 -3 -8 -6 2 -6 23 -1 37 15 50 26 21z m173 -233 c0 -6 -4 -13 -10
-16 -5 -3 -10 1 -10 9 0 9 5 16 10 16 6 0 10 -4 10 -9z m-406 -29 c3 -5 -1 -9
-9 -9 -8 0 -12 4 -9 9 3 4 7 8 9 8 2 0 6 -4 9 -8z m-6 -75 c2 -10 -3 -17 -12
-17 -18 0 -29 16 -21 31 9 14 29 6 33 -14z m592 -152 c0 -8 9 -20 20 -27 11
-7 20 -21 20 -30 0 -20 15 -24 25 -8 7 11 45 -5 57 -24 5 -8 13 -7 28 2 17 10
20 10 20 -4 0 -8 -4 -12 -10 -9 -13 8 -13 -18 0 -31 5 -5 7 -26 4 -46 l-6 -37
-27 25 c-14 13 -30 24 -36 24 -16 1 -55 37 -55 51 0 6 -6 17 -14 23 -8 6 -26
37 -40 69 -23 53 -23 56 -5 47 10 -6 19 -17 19 -25z m254 -218 c6 -9 7 -19 3
-23 -9 -10 -48 26 -41 38 8 12 25 6 38 -15z m-86 -49 c17 -17 15 -28 -6 -28
-10 0 -23 -5 -30 -12 -9 -9 -15 -9 -24 0 -8 8 -5 16 13 31 28 24 31 25 47 9z
m-73 -158 c-10 -16 -47 -11 -61 8 -15 19 -18 54 -7 66 10 10 75 -62 68 -74z
m25 -34 c0 -18 -17 -29 -30 -21 -8 5 -7 11 1 21 15 18 29 18 29 0z m90 -146
c0 -5 -7 -7 -15 -4 -8 4 -15 8 -15 10 0 2 7 4 15 4 8 0 15 -4 15 -10z m314
-35 c-4 -8 -11 -15 -16 -15 -6 0 -5 6 2 15 7 8 14 15 16 15 2 0 1 -7 -2 -15z"/>
<path d="M1201 5954 c0 -11 3 -14 6 -6 3 7 2 16 -1 19 -3 4 -6 -2 -5 -13z"/>
<path d="M1744 5518 c3 -7 9 -21 12 -30 6 -16 24 -26 24 -14 0 17 -22 56 -31
56 -6 0 -8 -6 -5 -12z"/>
<path d="M1891 5294 c0 -11 3 -14 6 -6 3 7 2 16 -1 19 -3 4 -6 -2 -5 -13z"/>
<path d="M823 5155 c0 -22 2 -30 4 -17 2 12 2 30 0 40 -3 9 -5 -1 -4 -23z"/>
<path d="M845 5177 c-4 -10 -5 -21 -1 -24 10 -10 18 4 13 24 -4 17 -4 17 -12
0z"/>
<path d="M647 5060 c-59 -66 -19 -130 59 -93 50 23 58 60 20 98 -33 32 -47 32
-79 -5z"/>
<path d="M2093 5043 c-20 -7 -16 -19 12 -37 24 -16 25 -16 25 8 0 25 -15 36
-37 29z"/>
<path d="M554 4790 c1 -8 -6 -14 -15 -12 -23 3 -46 -116 -29 -150 7 -12 14
-25 16 -27 7 -8 34 29 34 48 0 11 4 22 10 26 6 4 6 15 0 30 -11 29 1 70 24 78
26 10 18 26 -12 24 -19 -1 -29 -7 -28 -17z"/>
<path d="M394 4595 c-4 -8 -12 -15 -20 -15 -25 0 -15 -19 27 -50 41 -29 65
-31 55 -4 -3 8 1 19 8 26 10 10 6 17 -21 35 -40 27 -42 27 -49 8z"/>
<path d="M2514 4585 c-4 -10 -1 -21 7 -26 23 -14 31 -10 27 13 -4 27 -26 35
-34 13z"/>
<path d="M350 4460 c0 -11 -6 -20 -14 -20 -8 0 -18 -5 -21 -10 -10 -16 5 -50
21 -50 17 0 18 -12 4 -26 -14 -14 14 -38 34 -31 16 6 56 90 56 117 0 17 -38
40 -65 40 -8 0 -15 -9 -15 -20z"/>
<path d="M2626 4455 c15 -23 44 -35 44 -17 -1 16 -28 42 -44 42 -15 0 -15 -2
0 -25z"/>
<path d="M2805 4440 c-3 -5 -24 -10 -46 -10 -33 0 -40 -3 -37 -17 4 -25 49
-29 65 -7 10 13 15 15 27 5 17 -14 31 1 22 24 -6 17 -22 20 -31 5z"/>
<path d="M2686 4362 c-3 -6 6 -17 20 -27 25 -16 26 -16 22 7 -3 23 -31 37 -42
20z"/>
<path d="M2990 4360 c0 -5 5 -10 11 -10 5 0 7 5 4 10 -3 6 -8 10 -11 10 -2 0
-4 -4 -4 -10z"/>
<path d="M3020 4344 c0 -9 11 -25 24 -35 15 -12 26 -32 28 -52 2 -19 11 -35
23 -42 67 -34 93 -56 88 -75 -6 -21 11 -28 22 -10 9 15 16 92 10 111 -4 11
-13 15 -25 12 -17 -5 -20 0 -20 31 0 35 -1 36 -40 36 -29 0 -40 4 -40 15 0 11
-7 14 -25 9 -15 -4 -25 -2 -25 5 0 6 -4 11 -10 11 -5 0 -10 -7 -10 -16z"/>
<path d="M2978 4243 c-10 -22 -24 -30 -63 -38 -71 -14 -84 -24 -78 -58 3 -16
13 -31 22 -35 9 -3 18 -8 21 -12 7 -9 71 -40 83 -40 6 0 18 -7 27 -15 9 -8 38
-18 63 -21 39 -6 47 -4 47 10 0 9 -4 16 -10 16 -5 0 -10 20 -10 45 0 53 -27
102 -53 97 -22 -4 -33 23 -17 43 12 14 6 35 -10 35 -5 0 -15 -12 -22 -27z"/>
<path d="M140 4201 c0 -11 -4 -23 -10 -26 -28 -17 1 -82 32 -70 26 10 48 58
36 80 -21 38 -58 48 -58 16z"/>
<path d="M2160 4184 c0 -8 5 -12 10 -9 6 4 8 11 5 16 -9 14 -15 11 -15 -7z"/>
<path d="M3472 3782 c-27 -9 -7 -182 20 -182 10 0 7 -30 -7 -62 -5 -13 -3 -18
8 -18 23 0 65 -42 88 -86 10 -21 26 -42 34 -47 8 -4 15 -14 15 -20 0 -7 17
-30 39 -51 27 -27 49 -38 76 -41 27 -2 34 0 26 8 -15 15 -14 67 2 66 6 0 39
-6 72 -13 48 -10 60 -16 60 -32 0 -21 18 -44 34 -44 6 0 11 -4 11 -9 0 -4 18
-21 40 -36 32 -22 38 -31 30 -45 -7 -14 -20 -17 -61 -15 l-51 3 6 -29 c3 -17
1 -29 -5 -29 -17 0 -63 27 -83 49 -14 15 -23 18 -36 11 -12 -6 -29 -6 -49 1
-25 9 -36 8 -56 -5 -37 -24 -34 -71 8 -119 34 -39 70 -50 66 -19 -3 32 1 42
16 42 8 0 15 -4 15 -10 0 -5 -7 -10 -16 -10 -12 0 -10 -5 9 -20 14 -11 32 -20
41 -20 33 0 87 -34 93 -60 3 -14 12 -33 20 -42 13 -14 12 -18 -4 -26 -48 -25
-71 -23 -93 8 -25 36 -42 39 -36 8 3 -13 5 -26 5 -30 1 -5 7 -8 15 -8 7 0 19
-6 25 -14 18 -21 -20 -44 -61 -37 -21 3 -26 6 -15 9 21 4 19 31 -3 43 -8 4
-27 10 -42 14 -16 3 -28 12 -28 20 0 16 -30 35 -54 35 -20 0 -20 -14 -1 -34 8
-8 15 -22 15 -31 0 -9 5 -13 10 -10 6 3 10 0 10 -8 0 -14 27 -31 68 -42 12 -4
22 -14 22 -24 0 -9 9 -27 20 -39 11 -11 16 -23 11 -26 -4 -3 -16 3 -26 14 -18
19 -65 28 -65 12 0 -4 16 -23 35 -42 19 -19 35 -39 35 -45 0 -19 34 -44 68
-51 18 -4 32 -13 32 -21 0 -8 -4 -12 -9 -8 -6 3 -6 -7 0 -27 5 -18 9 -33 9
-34 0 0 9 -11 20 -24 11 -13 20 -29 20 -37 0 -19 50 -103 61 -103 5 0 12 -12
15 -26 4 -15 19 -38 33 -53 14 -14 32 -36 39 -48 6 -13 17 -31 23 -41 15 -25
4 -70 -19 -74 -15 -3 -17 -15 -17 -87 0 -59 -4 -86 -12 -88 -21 -7 -15 -67 12
-114 15 -29 21 -49 16 -58 -12 -19 -39 -7 -51 24 -12 33 -28 32 -36 -2 -6 -21
-2 -31 20 -50 22 -18 27 -29 22 -48 -4 -14 -10 -25 -15 -25 -5 0 -23 -11 -40
-25 -26 -22 -33 -24 -50 -13 -20 12 -33 33 -51 81 -5 15 -16 27 -24 27 -27 0
-36 24 -25 64 7 26 7 41 0 50 -6 7 -14 40 -17 74 -7 60 -19 77 -47 66 -18 -7
-39 -121 -27 -145 12 -22 13 -89 1 -108 -7 -11 -14 -9 -36 13 -29 29 -55 28
-55 -2 0 -28 32 -52 68 -52 35 0 37 -2 21 -32 -18 -34 -3 -31 20 4 11 18 21
29 22 23 1 -12 5 -32 14 -74 5 -23 3 -32 -9 -37 -20 -8 -21 -34 -1 -34 9 0 12
-6 9 -15 -4 -8 -1 -15 5 -15 6 0 11 8 11 17 0 14 2 15 13 4 10 -10 9 -15 -4
-25 -14 -10 -15 -16 -5 -34 9 -17 14 -20 24 -10 9 9 12 -4 12 -60 0 -41 -4
-72 -10 -72 -5 0 -10 5 -10 10 0 6 -9 10 -20 10 -17 0 -19 -5 -14 -25 4 -18 0
-30 -19 -48 -20 -17 -27 -36 -31 -79 -5 -62 6 -81 57 -93 32 -8 50 -35 41 -62
-5 -15 -4 -15 5 -3 6 8 11 23 11 33 0 12 8 17 29 17 32 0 48 -14 30 -25 -7 -5
-2 -12 13 -19 18 -9 22 -19 20 -44 -2 -18 1 -32 7 -32 6 0 11 -10 11 -22 l0
-22 20 22 c13 14 20 35 20 60 0 23 6 45 15 52 22 19 36 1 42 -52 5 -39 2 -46
-21 -61 -28 -19 -34 -37 -12 -37 8 0 24 -13 34 -28 l20 -28 -23 -20 c-31 -28
-55 -37 -55 -21 0 18 -39 39 -61 32 -20 -7 -24 -20 -20 -67 2 -23 -2 -28 -21
-28 -33 -1 -58 -23 -58 -53 0 -14 -5 -29 -11 -32 -6 -4 -8 -13 -5 -21 7 -19
-3 -44 -18 -44 -7 0 -25 -16 -40 -35 -16 -20 -41 -43 -56 -52 -16 -9 -26 -21
-24 -28 6 -14 -34 -61 -48 -57 -6 1 -16 -2 -23 -8 -9 -8 -14 -7 -18 4 -7 19
14 66 31 66 6 0 12 5 12 10 0 6 -9 10 -20 10 -11 0 -20 -7 -20 -15 0 -11 -8
-13 -32 -8 -18 3 -34 7 -36 8 -2 2 -15 -8 -29 -21 -29 -27 -49 -27 -47 0 2 13
-3 15 -20 10 -11 -3 -25 -10 -31 -14 -5 -4 -31 -13 -57 -20 -26 -7 -53 -19
-59 -26 -6 -8 -27 -14 -46 -14 -29 0 -33 -3 -28 -19 4 -14 0 -20 -21 -24 -16
-3 -27 0 -31 9 -7 18 -38 18 -55 1 -7 -8 -45 -19 -83 -25 -206 -33 -259 -43
-285 -57 -16 -8 -35 -15 -43 -15 -8 0 -17 -6 -20 -13 -5 -14 -17 -14 -124 -3
-58 7 -73 12 -75 27 -3 16 -5 16 -28 4 -25 -14 -25 -15 -3 -21 24 -7 38 -44
20 -56 -7 -5 -23 -7 -37 -4 -14 2 -36 -4 -50 -14 -14 -9 -40 -18 -58 -18 -56
-1 -71 -11 -78 -48 -4 -20 -2 -40 3 -45 10 -10 159 -32 213 -30 22 0 42 -7 58
-22 l24 -22 1729 -3 1729 -2 0 1620 0 1620 -39 6 c-46 7 -48 8 -88 61 -22 28
-33 53 -33 75 0 49 12 60 56 58 77 -5 94 -1 94 20 0 11 -4 20 -10 20 -5 0 -10
9 -10 20 0 11 -6 20 -13 20 -7 0 -21 11 -31 25 -10 14 -25 25 -33 25 -7 0 -18
11 -24 24 -13 27 -55 51 -64 36 -10 -16 -22 -11 -28 11 -5 17 -9 19 -27 9 -12
-6 -18 -16 -13 -23 4 -6 6 -24 5 -39 -1 -14 2 -29 8 -33 5 -3 10 -17 10 -30 0
-12 7 -25 15 -29 8 -3 15 -17 15 -32 l0 -26 -82 3 c-61 2 -93 -2 -120 -14 -21
-10 -44 -17 -53 -17 -8 0 -15 -9 -15 -20 0 -12 -8 -30 -19 -41 -10 -11 -21
-36 -24 -54 -3 -19 -18 -50 -33 -70 -24 -32 -27 -44 -31 -157 -3 -68 -5 -156
-3 -195 1 -43 -3 -73 -9 -73 -5 0 -13 -24 -16 -54 -6 -44 -4 -59 11 -80 11
-14 24 -26 30 -26 16 0 -6 -80 -22 -80 -24 0 6 -92 42 -128 27 -27 34 -42 34
-71 0 -24 7 -44 19 -55 23 -21 17 -66 -10 -66 -24 0 -32 16 -19 40 9 17 8 20
-10 20 -21 0 -28 -27 -12 -45 5 -6 14 -29 21 -52 13 -47 31 -57 31 -18 0 45
39 28 55 -25 4 -14 23 -39 41 -57 19 -17 34 -36 34 -42 0 -6 9 -16 20 -23 22
-14 28 -72 9 -84 -13 -8 -29 13 -29 41 0 11 -12 31 -25 44 -14 13 -25 27 -25
32 0 5 -7 9 -15 9 -8 0 -15 6 -15 14 0 8 -6 16 -14 19 -8 3 -16 16 -19 29 -3
18 -5 16 -6 -8 -3 -68 -13 -95 -44 -110 -27 -15 -33 -14 -68 2 -22 9 -39 21
-39 26 0 4 -7 8 -15 8 -8 0 -15 5 -15 10 0 6 -11 10 -25 10 -18 0 -25 5 -25
20 0 14 -11 22 -40 30 -22 6 -40 15 -40 20 0 6 -11 10 -25 10 -16 0 -44 19
-82 55 -32 30 -74 62 -93 72 -19 10 -36 21 -38 26 -2 4 -16 7 -31 7 -15 0 -33
8 -41 19 -17 25 -34 17 -18 -9 14 -22 3 -39 -14 -22 -7 7 -27 12 -45 12 -29 0
-33 3 -33 25 0 17 -6 25 -17 25 -10 0 -28 16 -41 36 -17 26 -28 34 -42 29 -13
-4 -22 1 -30 15 -14 27 -37 56 -71 89 -32 32 -59 76 -59 94 0 8 10 22 23 31
22 15 22 16 2 31 -11 9 -20 23 -20 32 0 8 -10 22 -22 30 -20 14 -23 14 -23 0
0 -8 -7 -21 -16 -28 -14 -12 -20 -9 -40 16 -23 30 -23 48 1 43 8 -2 13 1 12 7
-1 5 -10 8 -19 7 -10 -2 -18 2 -18 7 0 6 4 11 9 11 15 0 -5 67 -28 91 -11 12
-21 26 -21 31 0 15 -86 88 -105 89 -11 0 -14 3 -7 6 6 2 12 11 12 19 0 19 -44
46 -64 38 -12 -5 -16 0 -16 22 -1 34 -12 49 -62 87 -21 15 -38 35 -38 43 0 8
-10 14 -22 14 -32 1 -62 26 -55 45 4 8 2 15 -3 15 -6 0 -10 16 -10 36 0 26
-10 47 -37 80 -21 24 -43 44 -50 44 -7 0 -18 9 -25 20 -7 11 -17 20 -23 20
-11 1 -55 88 -55 109 0 6 -7 14 -15 18 -9 3 -24 22 -35 43 -12 24 -34 45 -60
59 -40 21 -40 21 -60 1 -24 -24 -34 -25 -50 -5 -7 8 -21 15 -31 15 -11 0 -19
4 -19 9 0 10 -40 19 -58 13z m398 -333 c0 -5 -9 -9 -20 -9 -11 0 -20 6 -20 14
0 9 7 12 20 9 11 -3 20 -9 20 -14z m207 -271 c-3 -8 -6 -5 -6 6 -1 11 2 17 5
13 3 -3 4 -12 1 -19z m39 -55 c-10 -10 -19 5 -10 18 6 11 8 11 12 0 2 -7 1
-15 -2 -18z m-176 -405 c0 -10 9 -23 20 -30 11 -7 20 -18 20 -25 0 -7 6 -13
13 -13 8 0 7 -4 -3 -10 -9 -6 -10 -10 -3 -10 16 0 36 -37 27 -52 -4 -7 -12 -1
-21 16 -10 18 -22 26 -41 26 -15 0 -40 11 -56 25 -16 14 -34 25 -40 25 -6 1
-1 9 12 19 12 11 22 29 22 41 0 19 2 20 15 10 12 -10 15 -9 15 6 0 16 2 17 10
4 5 -8 10 -23 10 -32z m1566 -132 c8 -8 14 -22 14 -32 0 -14 -3 -13 -20 6 -30
34 -25 56 6 26z m-1106 -153 c-1 -24 -2 -26 -11 -10 -5 9 -7 22 -4 27 10 17
15 11 15 -17z m160 -98 c0 -11 11 -15 38 -15 35 0 39 -4 62 -52 15 -31 38 -59
60 -73 50 -32 63 -50 52 -72 -13 -24 25 -80 51 -75 19 4 47 -14 47 -29 0 -14
-34 -10 -56 6 -10 8 -36 15 -56 15 -31 0 -38 -3 -38 -20 0 -23 -28 -27 -36 -5
-12 29 -24 15 -24 -28 0 -32 -5 -45 -21 -55 -33 -21 -45 -2 -32 52 9 42 8 47
-14 67 -24 23 -24 39 0 87 8 16 18 22 36 20 31 -4 38 19 19 62 -11 26 -18 30
-50 30 -35 0 -38 2 -38 27 l0 27 -16 -22 c-8 -12 -19 -22 -25 -22 -15 0 -10
30 6 36 8 4 15 17 15 30 0 13 5 24 10 24 6 0 10 -7 10 -15z m-160 -95 c0 -5
-2 -10 -4 -10 -3 0 -8 5 -11 10 -3 6 -1 10 4 10 6 0 11 -4 11 -10z m424 -15
c7 -19 95 -18 103 1 4 11 9 12 19 3 8 -6 14 -15 14 -19 0 -14 -63 -40 -82 -34
-11 3 -20 0 -24 -9 -8 -21 -54 -9 -54 13 0 10 -11 28 -25 39 l-26 20 23 3 c30
5 45 0 52 -17z m-694 -135 c0 -5 -5 -10 -11 -10 -5 0 -7 5 -4 10 3 6 8 10 11
10 2 0 4 -4 4 -10z m50 -134 c0 -23 -17 -28 -34 -10 -21 21 -20 24 9 24 15 0
25 -6 25 -14z m150 -21 c7 -8 9 -15 6 -15 -4 0 -14 7 -22 15 -9 8 -11 15 -6
15 5 0 15 -7 22 -15z m1402 -66 c-7 -27 -13 -34 -34 -34 -32 -1 -58 -21 -58
-46 0 -24 -20 -35 -31 -18 -14 22 -11 39 6 33 9 -4 15 0 15 9 0 8 -7 20 -15
27 -33 28 1 59 41 37 12 -7 19 -7 22 1 2 6 9 9 16 6 7 -3 19 2 26 11 18 22 23
13 12 -26z m-1193 -133 c15 -16 19 -26 11 -31 -14 -9 -36 10 -43 35 -7 27 5
25 32 -4z m-702 -468 c-3 -8 -6 -5 -6 6 -1 11 2 17 5 13 3 -3 4 -12 1 -19z
m66 -8 c7 -28 -3 -60 -19 -60 -10 0 -14 13 -14 40 0 43 23 57 33 20z m-77 -45
c8 -34 -1 -55 -26 -55 -16 0 -20 6 -20 33 0 19 3 37 7 40 14 15 33 6 39 -18z
m97 -65 c6 -23 -2 -60 -12 -60 -16 0 -31 26 -31 52 0 21 5 28 19 28 10 0 21
-9 24 -20z m37 -101 c0 -5 -7 -9 -15 -9 -15 0 -20 12 -9 23 8 8 24 -1 24 -14z
m1806 -88 c-4 -5 4 -7 15 -4 25 7 23 -14 -4 -31 -13 -8 -20 -6 -31 9 -16 22
-12 35 10 35 8 0 13 -4 10 -9z m-1553 -255 c9 -7 17 -19 17 -25 0 -15 25 -41
40 -41 6 0 13 -7 16 -15 4 -8 15 -15 25 -15 10 0 19 -4 19 -9 0 -6 -19 -9 -42
-8 -33 2 -43 -2 -46 -15 -2 -11 3 -18 12 -18 9 0 18 -12 22 -27 3 -16 7 -34
10 -41 3 -9 -5 -12 -24 -10 -33 5 -102 65 -102 89 0 10 -5 21 -11 25 -7 4 -8
23 -4 53 10 69 30 85 68 57z m137 -236 c0 -10 -5 -22 -11 -25 -7 -5 -4 -14 7
-26 16 -18 16 -19 -4 -19 -18 0 -22 6 -22 35 0 21 -5 35 -12 36 -10 0 -10 2
-1 5 7 3 9 12 6 21 -5 13 -3 14 15 4 12 -7 22 -20 22 -31z m-163 -42 c-3 -7
-5 -2 -5 12 0 14 2 19 5 13 2 -7 2 -19 0 -25z m99 2 c17 0 19 -26 2 -33 -8 -3
-6 -6 5 -6 21 -1 23 -17 2 -25 -8 -3 -15 -12 -15 -20 0 -9 -14 -31 -32 -50
l-31 -34 -29 21 c-34 25 -36 37 -5 37 12 0 28 9 35 20 7 11 8 20 3 20 -5 0
-12 7 -15 16 -7 19 12 47 25 38 5 -3 9 2 9 11 0 12 5 15 16 11 9 -3 22 -6 30
-6z m74 -180 c0 -5 -4 -10 -10 -10 -5 0 -10 5 -10 10 0 6 5 10 10 10 6 0 10
-4 10 -10z m148 -62 c-13 -19 -11 -24 11 -46 18 -18 21 -27 12 -30 -15 -5 -51
31 -51 52 0 8 -4 18 -10 21 -19 12 -10 22 21 23 29 1 30 0 17 -20z"/>
<path d="M4701 2091 c-8 -14 -7 -20 4 -25 8 -3 15 -1 15 3 0 5 3 16 6 25 9 23
-13 20 -25 -3z"/>
<path d="M2450 3640 c0 -5 5 -10 10 -10 6 0 10 5 10 10 0 6 -4 10 -10 10 -5 0
-10 -4 -10 -10z"/>
<path d="M1586 3622 c-11 -3 -15 -7 -8 -11 14 -9 -10 -57 -26 -53 -7 1 -12 -7
-12 -17 0 -21 34 -26 57 -9 6 5 14 5 18 -2 3 -5 10 -10 16 -10 11 0 7 34 -8
52 -6 7 -13 22 -15 33 -2 14 -9 19 -22 17z"/>
<path d="M3046 3602 c-7 -11 4 -52 14 -52 10 0 21 41 14 52 -3 4 -9 8 -14 8
-5 0 -11 -4 -14 -8z"/>
<path d="M2812 3558 c-16 -16 -15 -33 4 -49 11 -9 14 -22 10 -44 -6 -32 15
-75 37 -75 7 0 23 -7 35 -16 19 -13 21 -19 11 -30 -9 -12 -9 -20 1 -39 16 -29
25 -31 34 -9 4 11 13 14 27 11 12 -3 22 0 26 9 3 8 15 14 27 13 26 -3 77 10
93 23 9 7 16 2 23 -18 12 -30 6 -74 -10 -74 -13 0 -13 -37 0 -45 6 -3 10 -15
10 -25 0 -32 18 -32 36 0 18 29 44 41 44 20 0 -5 6 -10 13 -10 7 0 24 -18 37
-41 14 -22 34 -50 46 -62 28 -29 33 -47 23 -74 -12 -32 -41 -28 -61 7 -9 17
-25 30 -36 30 -21 0 -42 18 -42 38 0 21 -26 42 -52 42 -29 1 -62 63 -48 91 21
39 3 86 -23 60 -6 -6 -19 -11 -28 -11 -30 0 -39 -49 -13 -74 14 -15 14 -19 -6
-52 -27 -43 -47 -41 -73 6 -10 19 -25 39 -33 43 -8 4 -14 17 -14 28 0 26 -47
69 -75 69 -19 0 -23 7 -28 52 -7 59 -38 101 -59 80 -17 -17 -28 -15 -28 6 -1
20 -23 52 -38 52 -17 0 -22 -29 -7 -44 8 -8 15 -19 15 -25 0 -6 5 -11 10 -11
6 0 16 -11 22 -25 9 -21 8 -28 -7 -45 -16 -18 -16 -20 -1 -36 16 -16 29 -15
70 2 17 7 19 4 14 -33 -7 -52 13 -100 44 -105 19 -2 23 -9 23 -38 0 -26 9 -44
36 -72 19 -21 41 -38 47 -38 17 0 92 -70 92 -85 0 -7 14 -18 30 -25 58 -24 82
-49 75 -80 -5 -23 -2 -30 14 -35 12 -3 25 -4 29 -1 10 6 44 -28 60 -60 14 -26
-1 -55 -19 -37 -7 7 -24 9 -41 6 -19 -4 -35 0 -47 11 -22 20 -36 7 -26 -25 5
-14 13 -19 25 -16 21 5 63 -20 55 -33 -3 -5 7 -16 22 -24 16 -7 35 -22 44 -32
19 -23 44 -103 27 -86 -7 7 -17 12 -22 12 -6 -1 0 -10 13 -21 21 -17 23 -23
13 -40 -7 -10 -12 -27 -12 -36 0 -15 -2 -16 -10 -3 -6 9 -6 18 0 24 12 12 13
46 1 46 -13 0 -20 -63 -9 -77 14 -17 31 -7 46 27 17 37 44 39 63 3 8 -15 22
-37 32 -48 9 -11 24 -28 32 -37 8 -10 12 -24 9 -33 -7 -18 17 -20 34 -3 9 9
15 3 27 -25 8 -20 15 -40 14 -44 -1 -5 -1 -32 0 -61 1 -45 4 -53 19 -50 24 4
42 -10 42 -33 0 -10 5 -19 10 -19 6 0 10 -7 10 -17 0 -15 2 -15 19 1 18 17 20
15 40 -39 12 -31 21 -66 22 -78 0 -17 5 -13 20 18 10 22 19 48 19 58 0 25 30
21 62 -10 21 -20 28 -23 28 -11 0 9 -7 21 -15 28 -8 7 -15 20 -15 29 0 9 -4
21 -8 27 -5 5 -14 28 -21 52 -10 35 -19 46 -47 58 -19 8 -45 12 -59 8 -21 -5
-25 -3 -25 15 0 14 6 21 20 21 11 0 20 5 20 10 0 6 24 21 53 34 80 36 163 146
109 146 -57 0 -86 82 -40 114 18 13 19 17 7 33 -7 10 -15 20 -16 22 -6 8 -43
-32 -43 -46 0 -11 -8 -9 -30 7 -35 25 -60 20 -89 -16 -23 -30 -40 -30 -100 -2
-46 21 -47 22 -59 84 -17 89 -16 174 2 174 7 0 19 -7 26 -15 17 -21 33 -19 22
1 -5 9 -7 25 -5 34 7 27 -9 30 -57 14 -44 -15 -70 -13 -70 5 0 6 11 13 25 17
14 3 25 13 25 21 0 9 6 13 15 10 8 -4 17 -2 20 3 4 6 14 10 24 10 10 0 23 6
29 13 13 15 -1 36 -42 62 -27 18 -29 18 -38 1 -9 -16 -12 -16 -39 10 -36 34
-36 47 -3 73 21 17 24 24 15 35 -7 8 -23 17 -36 20 -15 4 -25 14 -25 24 0 10
-13 29 -30 44 -24 21 -30 34 -31 70 0 36 -2 39 -9 21 -12 -29 -33 -29 -60 -1
-25 27 -25 34 -2 48 16 9 15 11 -5 29 -13 11 -23 25 -23 31 0 14 -40 89 -57
108 -6 6 -16 12 -21 12 -5 0 -17 9 -27 20 -12 13 -21 17 -25 10 -4 -7 -16 -3
-33 10 -42 33 -65 33 -72 0 -9 -39 -32 -59 -41 -34 -8 21 -53 63 -69 64 -6 0
-16 -5 -23 -12z m229 -50 c1 -7 1 -17 0 -22 -1 -5 3 -12 9 -16 7 -4 -1 -12
-20 -20 -35 -15 -50 -7 -32 18 7 9 15 25 18 35 7 20 23 23 25 5z m337 -576 c4
-23 -4 -27 -26 -14 -15 10 -5 45 12 39 6 -2 12 -13 14 -25z m312 -482 c0 -5
-4 -10 -10 -10 -5 0 -10 5 -10 10 0 6 5 10 10 10 6 0 10 -4 10 -10z m-207 -22
c8 -28 4 -32 -22 -23 -27 8 -28 45 -2 45 11 0 21 -9 24 -22z"/>
<path d="M1677 3534 c3 -9 -1 -14 -12 -14 -9 0 -15 -5 -13 -12 6 -18 28 -21
28 -4 0 9 7 16 15 16 22 0 18 17 -4 23 -14 3 -18 1 -14 -9z"/>
<path d="M1502 3465 c0 -16 2 -22 5 -12 2 9 2 23 0 30 -3 6 -5 -1 -5 -18z"/>
<path d="M1576 3464 c-8 -21 -8 -24 5 -24 6 0 24 -9 39 -20 41 -29 47 -1 8 34
-35 30 -44 32 -52 10z"/>
<path d="M2600 3446 c0 -9 5 -16 10 -16 6 0 10 4 10 9 0 6 -4 13 -10 16 -5 3
-10 -1 -10 -9z"/>
<path d="M1585 3264 c-11 -8 -30 -12 -41 -10 -16 4 -23 0 -27 -14 -8 -32 20
-45 99 -45 41 0 74 -3 74 -7 0 -5 7 -8 16 -8 8 0 12 5 8 11 -4 8 1 9 17 5 20
-6 21 -5 7 4 -10 6 -18 17 -18 24 0 7 -23 23 -51 35 -61 25 -58 25 -84 5z"/>
<path d="M3840 3223 c0 -17 32 -53 47 -53 7 0 10 7 7 15 -4 8 -11 15 -16 15
-6 0 -17 8 -24 18 -8 10 -13 12 -14 5z"/>
<path d="M1670 3181 c0 -6 4 -13 10 -16 6 -3 7 1 4 9 -7 18 -14 21 -14 7z"/>
<path d="M1854 3065 c3 -19 9 -50 12 -69 8 -44 -8 -53 -40 -21 -31 31 -51 34
-34 4 16 -26 101 -78 122 -75 27 4 31 16 5 16 -21 1 -22 2 -6 11 9 6 15 14 12
20 -4 5 0 9 7 9 9 1 8 5 -4 13 -9 7 -20 26 -23 43 -5 22 -4 25 4 14 7 -10 11
-11 11 -2 0 6 7 12 15 12 8 0 15 4 15 8 0 14 -58 52 -81 52 -19 0 -20 -4 -15
-35z"/>
<path d="M1305 2971 c-3 -12 -10 -21 -14 -21 -17 0 -59 -77 -66 -120 -4 -25
-16 -63 -27 -85 -19 -39 -19 -44 -4 -109 11 -45 13 -73 6 -85 -11 -22 -13 -94
-4 -183 4 -49 3 -68 -5 -68 -13 0 -14 3 -31 83 -9 43 -15 57 -26 53 -20 -8
-44 4 -44 22 0 8 -13 -4 -30 -26 -16 -23 -30 -49 -30 -57 0 -8 -11 -22 -25
-31 -32 -21 -32 -34 0 -34 14 0 28 -6 31 -14 6 -16 68 -48 99 -52 11 -2 37 5
58 14 l39 16 34 -37 c19 -20 59 -53 89 -73 31 -20 64 -47 74 -60 10 -13 25
-24 33 -24 8 0 18 -4 24 -9 18 -18 172 -60 239 -66 37 -3 76 -10 85 -15 9 -5
26 -6 38 -3 13 3 33 -2 49 -13 20 -13 50 -19 106 -21 76 -3 77 -2 77 22 0 18
5 25 20 25 14 0 22 11 31 40 12 40 24 51 31 29 2 -7 13 -9 27 -4 13 4 20 10
15 14 -12 8 -33 42 -40 64 -4 9 -16 17 -28 17 -11 1 -37 9 -56 20 -19 10 -45
24 -57 29 -13 6 -23 15 -23 21 0 5 -5 10 -11 10 -16 0 -47 43 -42 57 3 7 17
14 32 14 24 2 24 2 3 6 -16 3 -22 9 -18 20 3 8 9 26 12 39 3 13 10 24 15 24 5
0 9 5 9 11 0 6 13 24 29 40 24 24 38 29 77 29 34 0 51 5 64 20 21 24 15 60 -9
60 -14 0 -14 2 -1 11 11 7 6 8 -19 4 -22 -5 -31 -4 -27 3 3 6 -9 16 -29 22
-19 6 -35 18 -35 25 0 8 -9 16 -19 20 -11 3 -22 12 -25 20 -3 8 -17 15 -32 15
-17 0 -28 6 -31 18 -2 10 -17 26 -33 36 -16 9 -42 30 -58 46 -17 17 -45 31
-68 35 -21 4 -56 18 -76 31 -21 13 -42 24 -48 24 -6 0 -59 25 -118 55 -82 41
-121 56 -169 60 -56 6 -62 5 -68 -14z"/>
<path d="M1975 2950 c3 -5 10 -10 16 -10 5 0 9 5 9 10 0 6 -7 10 -16 10 -8 0
-12 -4 -9 -10z"/>
<path d="M916 2711 c-4 -7 -5 -15 -2 -18 9 -9 19 4 14 18 -4 11 -6 11 -12 0z"/>
<path d="M890 2514 c0 -8 5 -12 10 -9 6 4 8 11 5 16 -9 14 -15 11 -15 -7z"/>
<path d="M945 2520 c-3 -5 -1 -10 4 -10 6 0 11 5 11 10 0 6 -2 10 -4 10 -3 0
-8 -4 -11 -10z"/>
<path d="M740 2163 c-48 -8 -53 -12 -40 -28 7 -8 28 -15 46 -15 19 0 34 -4 34
-10 0 -5 7 -10 15 -10 17 0 20 23 5 51 -11 19 -14 20 -60 12z"/>
<path d="M610 2074 c0 -14 32 -35 48 -32 13 3 9 8 -15 20 -18 9 -33 14 -33 12z"/>
<path d="M427 1983 c-4 -3 -7 -15 -7 -25 0 -10 -4 -18 -10 -18 -5 0 -10 -7
-10 -15 0 -11 7 -14 25 -9 15 4 25 2 25 -5 0 -6 -7 -11 -15 -11 -16 0 -20 -12
-8 -24 4 -4 8 -13 9 -19 3 -39 19 -80 35 -90 11 -7 19 -16 19 -21 0 -4 -7 -3
-16 5 -14 11 -15 9 -12 -21 4 -38 8 -41 108 -71 41 -13 95 -31 119 -42 29 -13
54 -17 77 -12 36 6 38 25 3 25 -10 0 -19 6 -19 13 0 7 -32 48 -70 92 -50 57
-77 79 -91 78 -11 -2 -30 2 -42 9 -21 11 -21 11 -2 19 15 6 16 8 4 8 -9 1 -22
8 -29 16 -7 8 -21 15 -31 15 -11 0 -19 7 -19 15 0 9 6 12 15 9 10 -4 18 2 24
17 7 19 4 28 -15 47 -23 21 -54 29 -67 15z"/>
<path d="M2160 1940 c0 -22 4 -28 15 -24 9 4 15 1 15 -7 0 -9 3 -10 11 -2 13
13 -2 48 -26 57 -11 4 -15 -2 -15 -24z"/>
<path d="M980 1925 c0 -8 7 -15 16 -15 14 0 14 3 4 15 -7 8 -14 15 -16 15 -2
0 -4 -7 -4 -15z"/>
<path d="M1037 1934 c-3 -4 1 -13 11 -20 10 -8 12 -13 5 -14 -7 0 -13 -7 -13
-16 0 -11 6 -15 20 -11 28 7 35 -10 9 -23 -15 -9 -24 -9 -32 -1 -6 6 -20 11
-32 11 -11 0 -36 11 -56 24 -36 25 -52 23 -61 -4 -4 -10 -8 -6 -13 13 -4 15
-13 27 -20 27 -7 0 -27 3 -44 6 -26 6 -31 4 -31 -13 0 -25 36 -58 64 -58 11 0
20 -4 20 -10 -1 -5 -4 -24 -7 -42 -6 -29 -3 -34 36 -56 23 -14 53 -35 66 -46
13 -12 32 -21 41 -21 25 0 53 -35 46 -58 -6 -18 -1 -20 63 -21 l70 -1 22 60
c21 58 48 88 69 75 6 -3 10 1 10 9 0 9 5 16 10 16 6 0 10 11 10 25 0 14 7 28
15 31 8 4 15 10 15 14 0 15 -104 68 -155 81 -28 6 -58 15 -68 20 -11 6 -25 6
-36 -1 -13 -7 -20 -7 -23 1 -2 6 -7 7 -11 3z"/>
<path d="M2223 1895 c-6 -14 -7 -25 -2 -25 5 0 12 -7 15 -15 11 -26 107 -115
126 -115 10 0 18 5 18 10 0 6 14 10 31 10 23 0 30 -4 29 -17 -3 -31 12 -64 26
-59 8 3 14 -1 14 -9 0 -23 31 -33 95 -31 60 2 60 2 63 34 2 23 -1 32 -11 32
-9 0 -26 13 -40 29 -14 17 -28 27 -31 24 -3 -4 -6 -1 -6 5 0 22 -40 52 -68 52
-15 0 -33 5 -40 12 -9 9 -12 9 -12 0 0 -7 -7 -12 -15 -12 -8 0 -15 -4 -15 -9
0 -12 -92 -1 -105 13 -6 6 -15 29 -20 51 -12 47 -35 56 -52 20z m407 -219 c0
-11 -19 -15 -25 -6 -3 5 1 10 9 10 9 0 16 -2 16 -4z"/>
<path d="M3200 1871 c0 -11 4 -22 9 -25 12 -8 34 21 26 34 -11 17 -35 11 -35
-9z"/>
<path d="M1530 1810 c-8 -5 -10 -10 -4 -10 7 0 24 -25 40 -56 16 -31 30 -51
32 -45 2 6 10 11 18 11 27 0 14 34 -27 72 -22 21 -41 38 -42 38 -1 0 -9 -5
-17 -10z"/>
<path d="M1494 1735 c-3 -19 -10 -35 -14 -35 -4 0 -11 -16 -15 -36 -5 -30 -3
-39 15 -51 14 -10 18 -19 12 -25 -7 -7 -18 -2 -33 13 l-23 23 -11 -28 c-13
-30 -9 -76 6 -76 5 0 9 -6 9 -12 1 -17 41 -63 69 -77 27 -15 41 -7 34 19 -4
15 0 20 16 20 18 0 21 -5 19 -32 -3 -32 -1 -33 36 -36 21 -2 43 1 49 7 14 14
27 14 27 1 0 -6 -10 -14 -22 -19 -12 -4 -17 -10 -12 -13 5 -4 20 3 34 14 20
16 21 21 9 29 -7 5 -24 7 -36 4 -15 -4 -28 3 -43 22 -22 28 -22 47 1 49 35 2
39 5 39 23 0 11 -4 23 -10 26 -5 3 -10 17 -10 31 0 13 -4 24 -10 24 -5 0 -14
9 -20 21 -16 28 5 55 28 37 13 -11 14 -10 10 2 -2 8 -20 17 -38 20 -26 4 -41
15 -63 48 -15 23 -32 42 -37 42 -5 0 -12 -16 -16 -35z"/>
<path d="M3386 1741 c-4 -7 -5 -15 -2 -18 9 -9 19 4 14 18 -4 11 -6 11 -12 0z"/>
<path d="M2690 1710 c-26 -26 -25 -36 5 -64 14 -13 25 -34 25 -49 0 -33 19
-45 35 -23 7 9 19 14 29 10 18 -7 20 -22 7 -43 -10 -16 -1 -28 46 -54 17 -9
38 -14 47 -11 18 7 86 -14 86 -27 0 -5 9 -9 19 -9 29 0 51 -11 51 -24 0 -7 14
-13 33 -14 74 -2 113 -15 159 -53 53 -44 58 -46 58 -21 0 14 8 18 34 19 29 1
36 -4 53 -35 10 -21 28 -38 38 -39 11 -2 14 0 7 3 -17 8 -5 24 13 18 8 -4 13
-9 10 -13 -7 -12 24 -51 40 -51 7 0 19 16 25 36 11 32 10 38 -7 56 -18 18 -24
19 -63 7 -34 -10 -44 -11 -48 -1 -2 7 -10 19 -18 26 -16 17 -19 46 -4 46 6 0
24 -7 40 -15 29 -15 30 -15 30 9 0 13 -6 27 -12 29 -10 4 -9 8 2 16 8 5 12 11
10 13 -3 2 -22 12 -42 22 -21 11 -38 23 -38 28 0 4 -18 8 -40 8 -27 0 -40 4
-40 14 0 15 -58 32 -137 40 -50 5 -53 4 -59 -19 -6 -25 -21 -30 -70 -26 -12 1
-27 -5 -34 -14 -19 -22 -47 -18 -66 10 -9 14 -23 25 -30 25 -8 0 -30 16 -49
35 -27 26 -35 43 -35 70 0 27 -4 35 -19 35 -10 0 -30 11 -45 25 -26 24 -27 24
-46 5z m157 -196 c-3 -3 -12 -4 -19 -1 -8 3 -5 6 6 6 11 1 17 -2 13 -5z m513
-90 c0 -8 -4 -12 -10 -9 -5 3 -10 10 -10 16 0 5 5 9 10 9 6 0 10 -7 10 -16z"/>
<path d="M2857 1703 c-12 -11 -8 -21 12 -26 14 -3 17 0 14 14 -5 20 -15 24
-26 12z"/>
<path d="M3013 1688 c-2 -5 3 -8 11 -8 9 0 16 -4 16 -10 0 -16 76 -12 90 5 7
8 11 15 9 15 -40 5 -122 3 -126 -2z"/>
<path d="M3198 1653 c5 -25 6 -25 13 -8 11 29 10 35 -5 35 -9 0 -12 -8 -8 -27z"/>
<path d="M3470 1630 c0 -5 5 -10 10 -10 6 0 10 5 10 10 0 6 -4 10 -10 10 -5 0
-10 -4 -10 -10z"/>
<path d="M492 1622 c-12 -2 -20 -7 -17 -12 3 -5 20 -7 38 -4 23 3 27 2 12 -4
-16 -7 -12 -10 23 -15 23 -4 42 -12 42 -17 0 -6 12 -10 27 -10 25 0 25 -1 9
-19 -15 -17 -15 -19 -1 -25 9 -3 13 -2 10 4 -3 6 1 10 10 10 9 0 14 -3 11 -8
-7 -11 16 -36 47 -50 24 -10 31 -10 43 3 29 29 13 55 -51 81 -33 13 -65 24
-72 24 -6 0 -13 3 -15 8 -5 12 -91 37 -116 34z"/>
<path d="M3626 1462 c-3 -6 -1 -14 5 -17 14 -9 20 -2 10 14 -6 8 -11 9 -15 3z"/>
<path d="M1990 1399 c0 -38 -8 -68 -30 -111 -17 -33 -28 -64 -25 -69 10 -14
30 -11 58 11 20 16 37 19 77 16 44 -3 50 -1 44 13 -3 9 -9 26 -11 39 -3 12
-10 22 -17 21 -6 -1 -16 -1 -23 0 -13 1 -33 54 -33 87 0 13 -9 28 -20 34 -19
10 -20 8 -20 -41z"/>
<path d="M688 1399 c9 -23 22 -44 30 -47 8 -3 29 -20 48 -39 18 -18 40 -33 48
-33 9 0 23 -12 33 -27 10 -16 23 -33 28 -39 21 -22 80 -48 103 -45 14 2 22 -3
22 -13 0 -11 9 -16 26 -16 24 0 25 3 19 28 -5 15 -9 38 -10 52 -4 51 -19 71
-77 105 -32 19 -63 35 -69 35 -5 0 -9 5 -9 10 0 6 -7 10 -15 10 -8 0 -23 8
-33 18 -14 14 -112 42 -149 42 -8 0 -6 -14 5 -41z"/>
<path d="M2480 1414 c0 -8 5 -12 10 -9 6 4 8 11 5 16 -9 14 -15 11 -15 -7z"/>
<path d="M398 1393 c-19 -5 -33 -52 -19 -66 7 -7 17 -2 30 14 31 37 26 60 -11
52z"/>
<path d="M1720 1389 c0 -5 5 -7 10 -4 6 3 10 8 10 11 0 2 -4 4 -10 4 -5 0 -10
-5 -10 -11z"/>
<path d="M1768 1361 l-37 -38 23 -12 c12 -7 38 -11 57 -9 28 2 38 10 57 46
l23 42 -23 0 c-13 0 -32 2 -43 5 -14 3 -31 -7 -57 -34z"/>
<path d="M2745 1320 c-4 -6 7 -13 24 -16 17 -4 31 -10 31 -15 0 -5 5 -9 11 -9
7 0 17 -7 24 -17 16 -21 45 -10 45 17 0 14 -7 20 -22 20 -13 0 -32 7 -42 15
-23 17 -62 20 -71 5z"/>
<path d="M640 1286 c0 -15 9 -27 25 -34 30 -14 75 -16 75 -4 0 12 -51 48 -77
54 -19 5 -23 2 -23 -16z"/>
<path d="M406 1275 c-8 -8 -19 -15 -24 -15 -6 0 -13 -7 -16 -16 -7 -18 19 -43
43 -44 8 0 25 -10 38 -22 29 -27 40 -17 25 25 -7 19 -12 45 -12 60 0 31 -28
37 -54 12z"/>
<path d="M2188 1264 c4 -22 6 -24 14 -10 9 16 3 36 -11 36 -5 0 -6 -12 -3 -26z"/>
<path d="M640 1176 c0 -35 4 -56 11 -56 11 0 9 -16 -7 -69 l-7 -24 68 7 c38 4
75 11 81 17 8 6 13 6 16 0 3 -10 166 4 177 15 9 9 -21 22 -74 35 -27 6 -70 23
-95 38 -25 14 -49 27 -55 27 -5 1 -15 2 -22 3 -6 0 -13 13 -15 29 -3 23 -8 27
-40 30 l-38 3 0 -55z"/>
<path d="M2936 1203 c-14 -34 -3 -54 50 -97 57 -47 98 -58 122 -34 9 9 12 9
12 -1 0 -11 3 -11 15 -1 13 11 20 11 40 0 14 -7 25 -17 25 -22 0 -4 17 -8 38
-8 74 0 76 62 2 96 -19 10 -37 20 -40 23 -10 12 -128 41 -222 54 -27 4 -38 1
-42 -10z"/>
<path d="M2410 1095 c-8 -9 -8 -15 -2 -15 12 0 26 19 19 26 -2 2 -10 -2 -17
-11z"/>
<path d="M1133 1042 c-23 -8 -159 -132 -186 -172 l-18 -25 6 28 c3 15 3 27 0
27 -11 0 -113 -68 -121 -81 -4 -7 -3 -14 4 -17 7 -2 12 -8 12 -14 0 -6 -6 -5
-15 2 -12 10 -21 10 -43 1 l-27 -13 35 -28 c40 -33 114 -75 150 -85 18 -4 21
-4 11 4 -12 8 -12 12 -2 25 8 9 16 16 20 16 7 0 31 -50 31 -66 0 -6 20 -28 45
-49 54 -44 61 -43 182 16 66 32 89 50 119 90 30 41 35 55 30 82 -5 29 -4 30 8
14 12 -15 14 -16 20 -2 8 21 25 19 46 -7 17 -21 17 -25 3 -41 -24 -26 -7 -33
25 -11 28 21 93 53 150 74 18 7 35 16 37 20 3 5 -15 21 -40 37 -25 15 -45 31
-45 35 0 4 -10 12 -21 19 -17 8 -23 8 -29 -1 -12 -19 -29 -3 -23 21 5 19 3 21
-22 17 -37 -8 -146 24 -220 64 -38 20 -93 29 -122 20z m-241 -272 c-4 -3 -9
-9 -13 -13 -3 -4 -6 6 -6 22 0 27 2 28 13 13 7 -9 9 -19 6 -22z"/>
<path d="M3357 1018 c-8 -30 -1 -38 34 -38 21 0 29 5 29 18 0 10 5 23 12 30 9
9 3 12 -29 12 -33 0 -42 -4 -46 -22z"/>
<path d="M1370 1020 c-12 -7 -12 -12 -2 -22 14 -14 35 1 24 19 -5 8 -13 9 -22
3z"/>
<path d="M816 1005 c-43 -8 -83 -18 -89 -24 -6 -6 -24 -11 -39 -11 -18 0 -28
-5 -28 -15 0 -8 9 -15 20 -15 11 0 20 5 20 11 0 6 14 1 30 -11 17 -12 30 -18
31 -13 0 4 4 -2 9 -15 5 -12 7 -29 3 -38 -6 -17 -7 -17 66 21 41 22 79 61 87
92 3 12 13 24 22 26 38 10 -59 4 -132 -8z"/>
<path d="M3440 990 c0 -5 7 -10 15 -10 8 0 15 5 15 10 0 6 -7 10 -15 10 -8 0
-15 -4 -15 -10z"/>
<path d="M2859 947 c-6 -12 -23 -32 -38 -44 -22 -19 -24 -24 -11 -33 19 -13
37 -13 45 0 3 6 15 10 25 10 21 0 34 31 25 59 -9 29 -33 33 -46 8z"/>
<path d="M3748 949 c-26 -14 -22 -29 7 -29 18 0 25 5 25 20 0 22 -7 24 -32 9z"/>
<path d="M3894 906 c-8 -21 -1 -49 14 -54 8 -2 12 8 12 32 0 36 -16 49 -26 22z"/>
<path d="M648 898 c-2 -6 -2 -24 0 -40 5 -34 32 -35 47 -1 7 17 15 21 32 17
32 -8 29 4 -4 18 -39 16 -71 19 -75 6z"/>
<path d="M1680 804 c-19 -8 -44 -24 -56 -35 -12 -11 -45 -33 -75 -48 -178 -93
-220 -119 -264 -165 -16 -17 -41 -39 -55 -49 -20 -14 -22 -19 -11 -26 19 -12
90 -23 102 -16 5 4 16 0 23 -8 21 -20 143 -35 343 -42 121 -4 173 -2 178 6 4
6 16 8 27 5 12 -3 32 4 49 16 15 11 34 18 43 15 8 -3 18 -2 21 3 6 10 45 14
45 5 0 -3 -7 -17 -16 -30 -19 -30 -5 -33 27 -6 19 15 21 22 12 32 -14 14 10
43 47 54 14 4 31 12 39 19 7 6 19 11 25 12 6 0 19 2 28 2 10 1 22 12 29 23 6
13 7 19 1 15 -17 -10 -59 11 -65 33 -3 12 -1 21 4 21 6 0 6 7 0 19 -12 22 -56
32 -88 20 -17 -6 -21 -5 -17 6 4 10 0 12 -15 8 -23 -6 -29 11 -8 21 6 4 -3 4
-20 1 -25 -3 -33 -1 -33 10 0 9 -9 15 -22 15 -32 1 -102 34 -129 61 -13 13
-20 16 -17 7 5 -12 -1 -14 -40 -7 -26 4 -54 10 -62 13 -8 3 -31 -2 -50 -10z
m454 -149 c4 -10 -1 -15 -14 -15 -13 0 -18 5 -14 15 4 8 10 15 14 15 4 0 10
-7 14 -15z"/>
<path d="M2110 760 c0 -5 5 -10 10 -10 6 0 10 5 10 10 0 6 -4 10 -10 10 -5 0
-10 -4 -10 -10z"/>
<path d="M2330 650 c-13 -8 -12 -10 3 -10 9 0 17 5 17 10 0 12 -1 12 -20 0z"/>
<path d="M2898 653 c-14 -4 -15 -7 -5 -16 14 -14 89 -20 127 -11 l25 7 -30 13
c-29 13 -83 16 -117 7z"/>
<path d="M2283 623 c-7 -2 -13 -14 -13 -25 0 -20 1 -21 20 -3 30 27 26 42 -7
28z"/>
<path d="M3190 600 c0 -5 4 -10 9 -10 6 0 13 5 16 10 3 6 -1 10 -9 10 -9 0
-16 -4 -16 -10z"/>
<path d="M3500 579 c-24 -18 -24 -19 -4 -19 23 0 50 25 37 33 -5 3 -20 -3 -33
-14z"/>
<path d="M2946 513 c-41 -4 -47 -7 -43 -22 6 -25 -24 -49 -65 -53 -21 -2 -34
-9 -36 -19 -2 -13 9 -18 53 -24 60 -7 131 1 141 16 3 5 12 9 20 9 20 0 43 23
64 66 l18 34 -52 -2 c-28 -1 -73 -3 -100 -5z m-41 -93 c-5 -8 -11 -8 -17 -2
-6 6 -7 16 -3 22 5 8 11 8 17 2 6 -6 7 -16 3 -22z"/>
<path d="M2727 496 c-18 -14 -18 -14 0 -20 25 -7 86 7 91 22 5 17 -68 15 -91
-2z"/>
<path d="M2836 494 c-8 -22 1 -31 16 -16 9 9 9 15 1 23 -7 7 -12 5 -17 -7z"/>
<path d="M1250 391 c36 -31 59 -38 76 -22 28 27 96 7 143 -44 13 -14 30 -25
39 -25 8 0 29 -10 46 -23 34 -25 151 -52 179 -41 13 4 23 0 34 -15 24 -35 65
-25 75 19 5 19 13 43 19 53 15 27 5 34 -75 51 -177 40 -333 64 -461 72 l-110
6 35 -31z"/>
<path d="M2573 373 c9 -2 23 -2 30 0 6 3 -1 5 -18 5 -16 0 -22 -2 -12 -5z"/>
<path d="M1330 353 c0 -11 50 -33 74 -33 18 0 17 3 -9 20 -30 20 -65 27 -65
13z"/>
<path d="M1897 223 c-4 -3 -7 -11 -7 -17 0 -6 5 -5 12 2 6 6 9 14 7 17 -3 3
-9 2 -12 -2z"/>
</g>
</svg>
